<svg width="85" height="85" viewBox="0 0 85 85" fill="none" xmlns="http://www.w3.org/2000/svg">
<g id="Arrow">
<circle id="Ellipse 1" cx="42.2399" cy="42.2392" r="29.1853" transform="rotate(-140.381 42.2399 42.2392)" stroke="#636363" stroke-width="1.62942"/>
<path id="Vector" d="M32.8001 41.5811L39.4987 35.0357C39.6792 34.8654 39.9205 34.7715 40.1708 34.7743C40.4211 34.777 40.6602 34.8762 40.8368 35.0505C41.0133 35.2248 41.1131 35.4602 41.1147 35.706C41.1162 35.9518 41.0194 36.1884 40.8451 36.3647L35.7799 41.314L52.5667 41.3569C52.8198 41.3575 53.0624 41.4569 53.241 41.6332C53.4195 41.8095 53.5195 42.0482 53.5188 42.2968C53.5182 42.5454 53.417 42.7836 53.2376 42.959C53.0581 43.1344 52.8151 43.2325 52.5619 43.2319L35.7752 43.189L40.8149 48.1641C40.9059 48.2508 40.9783 48.3544 41.0281 48.4689C41.0778 48.5834 41.1038 48.7065 41.1046 48.831C41.1054 48.9555 41.0809 49.0789 41.0326 49.194C40.9843 49.3091 40.9132 49.4136 40.8233 49.5013C40.7335 49.5891 40.6267 49.6585 40.5093 49.7053C40.3919 49.7522 40.2661 49.7756 40.1394 49.7742C40.0126 49.7727 39.8874 49.7466 39.7711 49.6971C39.6548 49.6477 39.5496 49.576 39.4618 49.4863L32.7967 42.9067C32.6182 42.7304 32.5183 42.4918 32.5189 42.2432C32.5195 41.9946 32.6207 41.7564 32.8001 41.5811Z" fill="#636363"/>
</g>
</svg>
