<svg width="140" height="79" viewBox="0 0 140 79" fill="none" xmlns="http://www.w3.org/2000/svg">
<path d="M34.8293 74.0687C34.8096 73.8703 34.7252 73.7161 34.5759 73.6063C34.4267 73.4964 34.2242 73.4415 33.9684 73.4415C33.7946 73.4415 33.6479 73.4661 33.5282 73.5153C33.4085 73.5628 33.3166 73.6292 33.2527 73.7145C33.1904 73.7998 33.1592 73.8965 33.1592 74.0047C33.1559 74.0949 33.1748 74.1736 33.2158 74.2408C33.2584 74.3081 33.3166 74.3663 33.3904 74.4155C33.4642 74.463 33.5495 74.5048 33.6462 74.5409C33.743 74.5754 33.8463 74.6049 33.9561 74.6295L34.4087 74.7377C34.6284 74.7869 34.8301 74.8525 35.0138 74.9345C35.1974 75.0164 35.3565 75.1173 35.4909 75.237C35.6254 75.3567 35.7295 75.4977 35.8033 75.66C35.8787 75.8224 35.9172 76.0085 35.9189 76.2184C35.9172 76.5266 35.8385 76.7939 35.6828 77.0202C35.5286 77.2448 35.3056 77.4195 35.0138 77.5441C34.7235 77.6671 34.3734 77.7286 33.9635 77.7286C33.5569 77.7286 33.2027 77.6662 32.901 77.5416C32.6009 77.417 32.3664 77.2325 32.1975 76.9882C32.0303 76.7423 31.9425 76.4381 31.9343 76.0757H32.9649C32.9764 76.2446 33.0248 76.3856 33.11 76.4988C33.1969 76.6103 33.3125 76.6947 33.4568 76.7521C33.6028 76.8078 33.7676 76.8357 33.9512 76.8357C34.1316 76.8357 34.2882 76.8095 34.421 76.757C34.5554 76.7045 34.6596 76.6316 34.7334 76.5381C34.8071 76.4446 34.844 76.3372 34.844 76.2159C34.844 76.1028 34.8104 76.0077 34.7432 75.9306C34.6776 75.8535 34.5809 75.7879 34.453 75.7338C34.3267 75.6797 34.1718 75.6305 33.9881 75.5862L33.4396 75.4485C33.0149 75.3452 32.6796 75.1837 32.4336 74.964C32.1877 74.7442 32.0655 74.4483 32.0672 74.0761C32.0655 73.7711 32.1467 73.5046 32.3107 73.2767C32.4763 73.0488 32.7034 72.8709 32.992 72.743C33.2806 72.6151 33.6085 72.5511 33.9758 72.5511C34.3497 72.5511 34.676 72.6151 34.9547 72.743C35.2351 72.8709 35.4532 73.0488 35.609 73.2767C35.7648 73.5046 35.8451 73.7686 35.85 74.0687H34.8293ZM36.6156 77.6572V73.8793H37.6142V74.5458H37.6584C37.7371 74.3245 37.8683 74.1498 38.052 74.0219C38.2356 73.894 38.4553 73.8301 38.7111 73.8301C38.9702 73.8301 39.1908 73.8949 39.3728 74.0244C39.5548 74.1523 39.6761 74.3261 39.7368 74.5458H39.7761C39.8532 74.3294 39.9926 74.1564 40.1943 74.0269C40.3976 73.8957 40.6378 73.8301 40.9149 73.8301C41.2675 73.8301 41.5536 73.9424 41.7733 74.1671C41.9947 74.3901 42.1054 74.7065 42.1054 75.1165V77.6572H41.0601V75.3231C41.0601 75.1132 41.0043 74.9558 40.8928 74.8508C40.7813 74.7459 40.6419 74.6934 40.4747 74.6934C40.2845 74.6934 40.1361 74.7541 40.0295 74.8754C39.9229 74.9951 39.8696 75.1534 39.8696 75.3501V77.6572H38.8538V75.3009C38.8538 75.1156 38.8005 74.9681 38.6939 74.8582C38.589 74.7483 38.4504 74.6934 38.2783 74.6934C38.1618 74.6934 38.0569 74.7229 37.9634 74.782C37.8716 74.8394 37.7986 74.9205 37.7445 75.0255C37.6904 75.1288 37.6634 75.2501 37.6634 75.3895V77.6572H36.6156ZM44.0103 77.7286C43.7693 77.7286 43.5545 77.6867 43.3659 77.6031C43.1774 77.5178 43.0281 77.3924 42.9183 77.2268C42.8101 77.0595 42.7559 76.8513 42.7559 76.6021C42.7559 76.3922 42.7945 76.2159 42.8715 76.0732C42.9486 75.9306 43.0536 75.8158 43.1864 75.7289C43.3192 75.642 43.47 75.5764 43.6389 75.5321C43.8095 75.4879 43.9882 75.4567 44.1751 75.4387C44.3949 75.4157 44.5719 75.3944 44.7064 75.3747C44.8409 75.3534 44.9384 75.3223 44.9991 75.2813C45.0598 75.2403 45.0901 75.1796 45.0901 75.0992V75.0845C45.0901 74.9287 45.0409 74.8082 44.9425 74.7229C44.8458 74.6377 44.708 74.595 44.5293 74.595C44.3407 74.595 44.1907 74.6368 44.0792 74.7205C43.9677 74.8025 43.8939 74.9058 43.8578 75.0304L42.8888 74.9517C42.938 74.7221 43.0347 74.5237 43.179 74.3565C43.3233 74.1876 43.5094 74.058 43.7373 73.9678C43.9669 73.876 44.2325 73.8301 44.5342 73.8301C44.7441 73.8301 44.945 73.8547 45.1368 73.9039C45.3303 73.9531 45.5017 74.0293 45.6509 74.1326C45.8017 74.2359 45.9206 74.3687 46.0075 74.5311C46.0944 74.6918 46.1379 74.8844 46.1379 75.1091V77.6572H45.1442V77.1333H45.1147C45.054 77.2514 44.9729 77.3555 44.8712 77.4457C44.7695 77.5342 44.6474 77.6039 44.5047 77.6548C44.3621 77.704 44.1973 77.7286 44.0103 77.7286ZM44.3104 77.0054C44.4645 77.0054 44.6006 76.9751 44.7187 76.9144C44.8368 76.8521 44.9294 76.7685 44.9966 76.6636C45.0639 76.5586 45.0975 76.4397 45.0975 76.3069V75.906C45.0647 75.9273 45.0196 75.947 44.9622 75.965C44.9065 75.9814 44.8433 75.997 44.7728 76.0118C44.7023 76.0249 44.6318 76.0372 44.5613 76.0487C44.4908 76.0585 44.4268 76.0675 44.3694 76.0757C44.2465 76.0937 44.1391 76.1224 44.0472 76.1618C43.9554 76.2011 43.8841 76.2544 43.8332 76.3217C43.7824 76.3873 43.757 76.4692 43.757 76.5676C43.757 76.7103 43.8087 76.8193 43.912 76.8948C44.0169 76.9685 44.1497 77.0054 44.3104 77.0054ZM46.9508 77.6572V73.8793H47.9666V74.5385H48.0059C48.0748 74.304 48.1904 74.1269 48.3528 74.0072C48.5151 73.8858 48.702 73.8252 48.9135 73.8252C48.966 73.8252 49.0226 73.8285 49.0833 73.835C49.1439 73.8416 49.1972 73.8506 49.2431 73.8621V74.7918C49.1939 74.777 49.1259 74.7639 49.039 74.7524C48.9521 74.741 48.8725 74.7352 48.8004 74.7352C48.6463 74.7352 48.5085 74.7688 48.3872 74.8361C48.2675 74.9017 48.1724 74.9935 48.1019 75.1115C48.033 75.2296 47.9986 75.3657 47.9986 75.5198V77.6572H46.9508ZM51.9837 73.8793V74.6664H49.7086V73.8793H51.9837ZM50.2251 72.9742H51.2729V76.4963C51.2729 76.593 51.2877 76.6685 51.3172 76.7226C51.3467 76.7751 51.3877 76.8119 51.4402 76.8333C51.4943 76.8546 51.5566 76.8652 51.6271 76.8652C51.6763 76.8652 51.7255 76.8611 51.7747 76.8529C51.8239 76.8431 51.8616 76.8357 51.8878 76.8308L52.0526 77.6105C52.0001 77.6269 51.9263 77.6457 51.8312 77.6671C51.7361 77.69 51.6205 77.704 51.4844 77.7089C51.2319 77.7187 51.0105 77.6851 50.8203 77.608C50.6318 77.531 50.485 77.4113 50.3801 77.2489C50.2751 77.0866 50.2235 76.8816 50.2251 76.634V72.9742ZM54.289 77.6572V72.62H55.354V74.6983H57.516V72.62H58.5785V77.6572H57.516V75.5764H55.354V77.6572H54.289ZM61.1439 77.731C60.7618 77.731 60.4314 77.6498 60.1527 77.4875C59.8755 77.3235 59.6616 77.0956 59.5107 76.8037C59.3598 76.5102 59.2844 76.17 59.2844 75.783C59.2844 75.3928 59.3598 75.0517 59.5107 74.7598C59.6616 74.4663 59.8755 74.2384 60.1527 74.0761C60.4314 73.9121 60.7618 73.8301 61.1439 73.8301C61.5259 73.8301 61.8555 73.9121 62.1326 74.0761C62.4114 74.2384 62.6262 74.4663 62.777 74.7598C62.9279 75.0517 63.0033 75.3928 63.0033 75.783C63.0033 76.17 62.9279 76.5102 62.777 76.8037C62.6262 77.0956 62.4114 77.3235 62.1326 77.4875C61.8555 77.6498 61.5259 77.731 61.1439 77.731ZM61.1488 76.9193C61.3226 76.9193 61.4677 76.8702 61.5841 76.7718C61.7006 76.6717 61.7883 76.5357 61.8473 76.3635C61.908 76.1913 61.9383 75.9954 61.9383 75.7756C61.9383 75.5559 61.908 75.36 61.8473 75.1878C61.7883 75.0156 61.7006 74.8795 61.5841 74.7795C61.4677 74.6795 61.3226 74.6295 61.1488 74.6295C60.9733 74.6295 60.8258 74.6795 60.7061 74.7795C60.588 74.8795 60.4986 75.0156 60.438 75.1878C60.3789 75.36 60.3494 75.5559 60.3494 75.7756C60.3494 75.9954 60.3789 76.1913 60.438 76.3635C60.4986 76.5357 60.588 76.6717 60.7061 76.7718C60.8258 76.8702 60.9733 76.9193 61.1488 76.9193ZM63.6846 77.6572V73.8793H64.6832V74.5458H64.7275C64.8062 74.3245 64.9374 74.1498 65.121 74.0219C65.3047 73.894 65.5244 73.8301 65.7802 73.8301C66.0393 73.8301 66.2598 73.8949 66.4418 74.0244C66.6239 74.1523 66.7452 74.3261 66.8059 74.5458H66.8452C66.9223 74.3294 67.0617 74.1564 67.2633 74.0269C67.4667 73.8957 67.7069 73.8301 67.984 73.8301C68.3366 73.8301 68.6227 73.9424 68.8424 74.1671C69.0638 74.3901 69.1745 74.7065 69.1745 75.1165V77.6572H68.1291V75.3231C68.1291 75.1132 68.0734 74.9558 67.9619 74.8508C67.8504 74.7459 67.711 74.6934 67.5437 74.6934C67.3535 74.6934 67.2051 74.7541 67.0986 74.8754C66.992 74.9951 66.9387 75.1534 66.9387 75.3501V77.6572H65.9229V75.3009C65.9229 75.1156 65.8696 74.9681 65.763 74.8582C65.6581 74.7483 65.5195 74.6934 65.3473 74.6934C65.2309 74.6934 65.126 74.7229 65.0325 74.782C64.9407 74.8394 64.8677 74.9205 64.8136 75.0255C64.7595 75.1288 64.7324 75.2501 64.7324 75.3895V77.6572H63.6846ZM71.7238 77.731C71.3352 77.731 71.0007 77.6523 70.7203 77.4949C70.4416 77.3358 70.2267 77.1112 70.0759 76.821C69.925 76.5291 69.8496 76.1839 69.8496 75.7855C69.8496 75.3969 69.925 75.0558 70.0759 74.7623C70.2267 74.4688 70.4391 74.24 70.7129 74.0761C70.9884 73.9121 71.3114 73.8301 71.682 73.8301C71.9312 73.8301 72.1633 73.8703 72.3781 73.9506C72.5945 74.0293 72.7831 74.1482 72.9438 74.3073C73.1061 74.4663 73.2324 74.6664 73.3226 74.9074C73.4127 75.1468 73.4578 75.4272 73.4578 75.7486V76.0364H70.2677V75.387H72.4715C72.4715 75.2362 72.4387 75.1025 72.3732 74.9861C72.3076 74.8697 72.2166 74.7787 72.1001 74.7131C71.9854 74.6459 71.8517 74.6122 71.6992 74.6122C71.5402 74.6122 71.3992 74.6491 71.2762 74.7229C71.1548 74.7951 71.0597 74.8926 70.9909 75.0156C70.922 75.137 70.8867 75.2722 70.8851 75.4215V76.0388C70.8851 76.2257 70.9195 76.3873 70.9884 76.5234C71.0589 76.6595 71.1581 76.7644 71.286 76.8382C71.4139 76.912 71.5656 76.9489 71.741 76.9489C71.8575 76.9489 71.964 76.9325 72.0608 76.8997C72.1575 76.8669 72.2403 76.8177 72.3092 76.7521C72.3781 76.6865 72.4305 76.6062 72.4666 76.5111L73.4357 76.575C73.3865 76.8078 73.2857 77.0112 73.1332 77.185C72.9823 77.3572 72.7872 77.4916 72.5478 77.5884C72.31 77.6835 72.0354 77.731 71.7238 77.731ZM76.6326 77.6572H75.4913L77.2302 72.62H78.6027L80.3392 77.6572H79.1979L77.9361 73.7711H77.8968L76.6326 77.6572ZM76.5612 75.6773H79.2569V76.5086H76.5612V75.6773ZM83.3485 76.0487V73.8793H84.3963V77.6572H83.3903V76.971H83.3509C83.2657 77.1924 83.1238 77.3703 82.9254 77.5047C82.7287 77.6392 82.4884 77.7064 82.2048 77.7064C81.9523 77.7064 81.7301 77.649 81.5382 77.5342C81.3464 77.4195 81.1963 77.2563 81.0881 77.0448C80.9815 76.8333 80.9274 76.5799 80.9258 76.2848V73.8793H81.9736V76.0978C81.9752 76.3208 82.0351 76.4971 82.1531 76.6267C82.2712 76.7562 82.4294 76.821 82.6278 76.821C82.7541 76.821 82.8721 76.7923 82.982 76.7349C83.0919 76.6758 83.1804 76.5889 83.2476 76.4742C83.3165 76.3594 83.3501 76.2175 83.3485 76.0487ZM87.2439 73.8793V74.6664H84.9687V73.8793H87.2439ZM85.4853 72.9742H86.533V76.4963C86.533 76.593 86.5478 76.6685 86.5773 76.7226C86.6068 76.7751 86.6478 76.8119 86.7003 76.8333C86.7544 76.8546 86.8167 76.8652 86.8872 76.8652C86.9364 76.8652 86.9856 76.8611 87.0348 76.8529C87.084 76.8431 87.1217 76.8357 87.1479 76.8308L87.3127 77.6105C87.2603 77.6269 87.1865 77.6457 87.0914 77.6671C86.9963 77.69 86.8807 77.704 86.7446 77.7089C86.492 77.7187 86.2707 77.6851 86.0805 77.608C85.8919 77.531 85.7452 77.4113 85.6402 77.2489C85.5353 77.0866 85.4836 76.8816 85.4853 76.634V72.9742ZM89.5928 77.731C89.2107 77.731 88.8803 77.6498 88.6016 77.4875C88.3244 77.3235 88.1105 77.0956 87.9596 76.8037C87.8088 76.5102 87.7333 76.17 87.7333 75.783C87.7333 75.3928 87.8088 75.0517 87.9596 74.7598C88.1105 74.4663 88.3244 74.2384 88.6016 74.0761C88.8803 73.9121 89.2107 73.8301 89.5928 73.8301C89.9748 73.8301 90.3044 73.9121 90.5815 74.0761C90.8603 74.2384 91.0751 74.4663 91.226 74.7598C91.3768 75.0517 91.4522 75.3928 91.4522 75.783C91.4522 76.17 91.3768 76.5102 91.226 76.8037C91.0751 77.0956 90.8603 77.3235 90.5815 77.4875C90.3044 77.6498 89.9748 77.731 89.5928 77.731ZM89.5977 76.9193C89.7715 76.9193 89.9166 76.8702 90.033 76.7718C90.1495 76.6717 90.2372 76.5357 90.2962 76.3635C90.3569 76.1913 90.3872 75.9954 90.3872 75.7756C90.3872 75.5559 90.3569 75.36 90.2962 75.1878C90.2372 75.0156 90.1495 74.8795 90.033 74.7795C89.9166 74.6795 89.7715 74.6295 89.5977 74.6295C89.4222 74.6295 89.2747 74.6795 89.155 74.7795C89.0369 74.8795 88.9475 75.0156 88.8869 75.1878C88.8278 75.36 88.7983 75.5559 88.7983 75.7756C88.7983 75.9954 88.8278 76.1913 88.8869 76.3635C88.9475 76.5357 89.0369 76.6717 89.155 76.7718C89.2747 76.8702 89.4222 76.9193 89.5977 76.9193ZM92.1335 77.6572V73.8793H93.1321V74.5458H93.1764C93.2551 74.3245 93.3863 74.1498 93.5699 74.0219C93.7536 73.894 93.9733 73.8301 94.2291 73.8301C94.4882 73.8301 94.7087 73.8949 94.8907 74.0244C95.0728 74.1523 95.1941 74.3261 95.2548 74.5458H95.2941C95.3712 74.3294 95.5106 74.1564 95.7123 74.0269C95.9156 73.8957 96.1558 73.8301 96.4329 73.8301C96.7855 73.8301 97.0716 73.9424 97.2913 74.1671C97.5127 74.3901 97.6234 74.7065 97.6234 75.1165V77.6572H96.578V75.3231C96.578 75.1132 96.5223 74.9558 96.4108 74.8508C96.2993 74.7459 96.1599 74.6934 95.9926 74.6934C95.8024 74.6934 95.654 74.7541 95.5475 74.8754C95.4409 74.9951 95.3876 75.1534 95.3876 75.3501V77.6572H94.3718V75.3009C94.3718 75.1156 94.3185 74.9681 94.2119 74.8582C94.107 74.7483 93.9684 74.6934 93.7962 74.6934C93.6798 74.6934 93.5749 74.7229 93.4814 74.782C93.3896 74.8394 93.3166 74.9205 93.2625 75.0255C93.2084 75.1288 93.1813 75.2501 93.1813 75.3895V77.6572H92.1335ZM99.5283 77.7286C99.2873 77.7286 99.0725 77.6867 98.8839 77.6031C98.6953 77.5178 98.5461 77.3924 98.4362 77.2268C98.328 77.0595 98.2739 76.8513 98.2739 76.6021C98.2739 76.3922 98.3124 76.2159 98.3895 76.0732C98.4666 75.9306 98.5715 75.8158 98.7043 75.7289C98.8372 75.642 98.988 75.5764 99.1569 75.5321C99.3274 75.4879 99.5062 75.4567 99.6931 75.4387C99.9128 75.4157 100.09 75.3944 100.224 75.3747C100.359 75.3534 100.456 75.3223 100.517 75.2813C100.578 75.2403 100.608 75.1796 100.608 75.0992V75.0845C100.608 74.9287 100.559 74.8082 100.46 74.7229C100.364 74.6377 100.226 74.595 100.047 74.595C99.8587 74.595 99.7087 74.6368 99.5972 74.7205C99.4857 74.8025 99.4119 74.9058 99.3758 75.0304L98.4067 74.9517C98.4559 74.7221 98.5527 74.5237 98.697 74.3565C98.8413 74.1876 99.0274 74.058 99.2553 73.9678C99.4849 73.876 99.7505 73.8301 100.052 73.8301C100.262 73.8301 100.463 73.8547 100.655 73.9039C100.848 73.9531 101.02 74.0293 101.169 74.1326C101.32 74.2359 101.439 74.3687 101.525 74.5311C101.612 74.6918 101.656 74.8844 101.656 75.1091V77.6572H100.662V77.1333H100.633C100.572 77.2514 100.491 77.3555 100.389 77.4457C100.288 77.5342 100.165 77.6039 100.023 77.6548C99.88 77.704 99.7152 77.7286 99.5283 77.7286ZM99.8284 77.0054C99.9825 77.0054 100.119 76.9751 100.237 76.9144C100.355 76.8521 100.447 76.7685 100.515 76.6636C100.582 76.5586 100.615 76.4397 100.615 76.3069V75.906C100.583 75.9273 100.538 75.947 100.48 75.965C100.424 75.9814 100.361 75.997 100.291 76.0118C100.22 76.0249 100.15 76.0372 100.079 76.0487C100.009 76.0585 99.9448 76.0675 99.8874 76.0757C99.7644 76.0937 99.657 76.1224 99.5652 76.1618C99.4734 76.2011 99.402 76.2544 99.3512 76.3217C99.3004 76.3873 99.275 76.4692 99.275 76.5676C99.275 76.7103 99.3266 76.8193 99.4299 76.8948C99.5349 76.9685 99.6677 77.0054 99.8284 77.0054ZM104.478 73.8793V74.6664H102.203V73.8793H104.478ZM102.72 72.9742H103.767V76.4963C103.767 76.593 103.782 76.6685 103.812 76.7226C103.841 76.7751 103.882 76.8119 103.935 76.8333C103.989 76.8546 104.051 76.8652 104.122 76.8652C104.171 76.8652 104.22 76.8611 104.269 76.8529C104.318 76.8431 104.356 76.8357 104.382 76.8308L104.547 77.6105C104.495 77.6269 104.421 77.6457 104.326 77.6671C104.231 77.69 104.115 77.704 103.979 77.7089C103.726 77.7187 103.505 77.6851 103.315 77.608C103.126 77.531 102.98 77.4113 102.875 77.2489C102.77 77.0866 102.718 76.8816 102.72 76.634V72.9742ZM105.161 77.6572V73.8793H106.209V77.6572H105.161ZM105.687 73.3923C105.531 73.3923 105.398 73.3406 105.286 73.2373C105.176 73.1324 105.121 73.007 105.121 72.861C105.121 72.7167 105.176 72.5929 105.286 72.4896C105.398 72.3847 105.531 72.3322 105.687 72.3322C105.843 72.3322 105.976 72.3847 106.086 72.4896C106.197 72.5929 106.253 72.7167 106.253 72.861C106.253 73.007 106.197 73.1324 106.086 73.2373C105.976 73.3406 105.843 73.3923 105.687 73.3923ZM108.755 77.731C108.373 77.731 108.042 77.6498 107.764 77.4875C107.487 77.3235 107.273 77.0956 107.122 76.8037C106.971 76.5102 106.895 76.17 106.895 75.783C106.895 75.3928 106.971 75.0517 107.122 74.7598C107.273 74.4663 107.487 74.2384 107.764 74.0761C108.042 73.9121 108.373 73.8301 108.755 73.8301C109.137 73.8301 109.467 73.9121 109.744 74.0761C110.022 74.2384 110.237 74.4663 110.388 74.7598C110.539 75.0517 110.614 75.3928 110.614 75.783C110.614 76.17 110.539 76.5102 110.388 76.8037C110.237 77.0956 110.022 77.3235 109.744 77.4875C109.467 77.6498 109.137 77.731 108.755 77.731ZM108.76 76.9193C108.934 76.9193 109.079 76.8702 109.195 76.7718C109.312 76.6717 109.399 76.5357 109.458 76.3635C109.519 76.1913 109.549 75.9954 109.549 75.7756C109.549 75.5559 109.519 75.36 109.458 75.1878C109.399 75.0156 109.312 74.8795 109.195 74.7795C109.079 74.6795 108.934 74.6295 108.76 74.6295C108.584 74.6295 108.437 74.6795 108.317 74.7795C108.199 74.8795 108.11 75.0156 108.049 75.1878C107.99 75.36 107.96 75.5559 107.96 75.7756C107.96 75.9954 107.99 76.1913 108.049 76.3635C108.11 76.5357 108.199 76.6717 108.317 76.7718C108.437 76.8702 108.584 76.9193 108.76 76.9193ZM112.343 75.4731V77.6572H111.296V73.8793H112.294V74.5458H112.338C112.422 74.3261 112.562 74.1523 112.759 74.0244C112.956 73.8949 113.194 73.8301 113.475 73.8301C113.737 73.8301 113.966 73.8875 114.161 74.0023C114.356 74.117 114.508 74.281 114.616 74.4942C114.724 74.7057 114.778 74.9582 114.778 75.2517V77.6572H113.731V75.4387C113.732 75.2075 113.673 75.0271 113.554 74.8976C113.434 74.7664 113.269 74.7008 113.059 74.7008C112.918 74.7008 112.794 74.7311 112.685 74.7918C112.579 74.8525 112.495 74.941 112.434 75.0574C112.375 75.1722 112.345 75.3108 112.343 75.4731Z" fill="#202020"/>
<path d="M17.1571 68.2762H17.3735V68.0598V59.2193L23.6899 68.1845L23.7546 68.2762H23.8669H26.6806H26.8971V68.0598V52.9087V52.6922H26.6806H23.434H23.2175V52.9087V61.7492L16.9011 52.784L16.8365 52.6922H16.7242H13.9104H13.694V52.9087V68.0598V68.2762H13.9104H17.1571Z" fill="#202020" stroke="#202020" stroke-width="0.432889"/>
<path d="M33.8233 68.2764H37.5029V55.7226H42.0482V52.6924H29.278V55.7226H33.8233V68.2764Z" fill="#202020" stroke="#202020" stroke-width="0.432889"/>
<path d="M44.6455 68.2764H55.0349V65.6048H47.9613V61.5975H54.3717V59.1486H47.9613V55.3639H55.0349V52.6924H44.6455V68.2764Z" fill="#202020" stroke="#202020" stroke-width="0.432889"/>
<path d="M57.6322 68.2764H67.1557V65.6425H60.6624V52.6924H57.6322V68.2764Z" fill="#202020" stroke="#202020" stroke-width="0.432889"/>
<path d="M100.705 68.2764H111.094V65.6048H104.02V61.5975H110.431V59.1486H104.02V55.3639H111.094V52.6924H100.705V68.2764Z" fill="#202020" stroke="#202020" stroke-width="0.432889"/>
<path d="M113.691 68.2764H117.154L120.401 62.9333L123.648 68.2764H127.327L122.565 60.4844L127.111 52.6924H123.431L120.401 58.0355L117.154 52.6924H113.691L118.453 60.4844L113.691 68.2764Z" fill="#202020" stroke="#202020" stroke-width="0.432889"/>
<path d="M88.5837 68.2764H98.1073V65.6425H91.6139V52.6924H88.5837V68.2764Z" fill="#202020" stroke="#202020" stroke-width="0.432889"/>
<path d="M76.2464 68.2764H79.2766V61.8201H85.3371V59.1486H79.2766V55.3639H85.9864V52.6924H76.2464V68.2764Z" fill="#202020" stroke="#202020" stroke-width="0.432889"/>
<rect x="0.0579987" y="73.6875" width="23.376" height="3.46311" fill="#202020"/>
<rect x="3.5211" y="46.4155" width="27.272" height="3.46311" transform="rotate(90 3.5211 46.4155)" fill="#202020"/>
<rect x="123.431" y="73.6875" width="16.4498" height="3.46311" fill="#202020"/>
<rect x="139.881" y="49.0127" width="24.6747" height="3.46311" transform="rotate(90 139.881 49.0127)" fill="#202020"/>
<rect x="139.881" y="21.7407" width="27.272" height="3.46311" transform="rotate(90 139.881 21.7407)" fill="#202020"/>
<path d="M60.8789 0.0964778L139.881 21.7409L138.926 24.9972L59.5218 3.72095L60.8789 0.0964778Z" fill="#202020"/>
<path d="M0.0579938 46.4156L88.3656 23.0401L89.287 26.1553L0.923772 49.8787L0.0579938 46.4156Z" fill="#202020"/>
<rect x="91.8304" y="23.0396" width="29.4364" height="3.46311" transform="rotate(90 91.8304 23.0396)" fill="#202020"/>
<path d="M60.8789 41.4374V54.2076H57.4157V39.2729L60.8789 41.4374Z" fill="#202020"/>
<path d="M57.4157 21.9352V0.0962868H60.8789V25.6367L57.4157 21.9352Z" fill="#202020"/>
</svg>
