<svg width="140" height="79" viewBox="0 0 140 79" fill="none" xmlns="http://www.w3.org/2000/svg">
<path d="M34.8293 74.0688C34.8096 73.8704 34.7252 73.7162 34.576 73.6064C34.4267 73.4965 34.2242 73.4416 33.9684 73.4416C33.7946 73.4416 33.6479 73.4662 33.5282 73.5154C33.4085 73.5629 33.3166 73.6293 33.2527 73.7146C33.1904 73.7999 33.1592 73.8966 33.1592 74.0048C33.1559 74.095 33.1748 74.1737 33.2158 74.241C33.2584 74.3082 33.3166 74.3664 33.3904 74.4156C33.4642 74.4631 33.5495 74.505 33.6462 74.541C33.743 74.5755 33.8463 74.605 33.9561 74.6296L34.4087 74.7378C34.6284 74.787 34.8301 74.8526 35.0138 74.9346C35.1974 75.0165 35.3565 75.1174 35.4909 75.2371C35.6254 75.3568 35.7295 75.4978 35.8033 75.6601C35.8787 75.8225 35.9173 76.0086 35.9189 76.2185C35.9173 76.5267 35.8385 76.794 35.6828 77.0203C35.5286 77.2449 35.3056 77.4196 35.0138 77.5442C34.7235 77.6672 34.3734 77.7287 33.9635 77.7287C33.5569 77.7287 33.2027 77.6664 32.901 77.5417C32.6009 77.4171 32.3664 77.2326 32.1975 76.9883C32.0303 76.7424 31.9425 76.4382 31.9343 76.0758H32.9649C32.9764 76.2447 33.0248 76.3857 33.11 76.4989C33.1969 76.6104 33.3125 76.6948 33.4568 76.7522C33.6028 76.808 33.7676 76.8358 33.9512 76.8358C34.1316 76.8358 34.2882 76.8096 34.421 76.7571C34.5555 76.7047 34.6596 76.6317 34.7334 76.5382C34.8072 76.4448 34.844 76.3374 34.844 76.216C34.844 76.1029 34.8104 76.0078 34.7432 75.9307C34.6776 75.8536 34.5809 75.788 34.453 75.7339C34.3267 75.6798 34.1718 75.6306 33.9881 75.5864L33.4396 75.4486C33.0149 75.3453 32.6796 75.1838 32.4336 74.9641C32.1877 74.7444 32.0655 74.4484 32.0672 74.0762C32.0655 73.7712 32.1467 73.5047 32.3107 73.2768C32.4763 73.0489 32.7034 72.871 32.992 72.7431C33.2806 72.6152 33.6085 72.5512 33.9758 72.5512C34.3497 72.5512 34.676 72.6152 34.9547 72.7431C35.2351 72.871 35.4532 73.0489 35.609 73.2768C35.7648 73.5047 35.8451 73.7687 35.85 74.0688H34.8293ZM36.6156 77.6573V73.8794H37.6142V74.5459H37.6584C37.7371 74.3246 37.8683 74.15 38.052 74.0221C38.2356 73.8942 38.4554 73.8302 38.7111 73.8302C38.9702 73.8302 39.1908 73.895 39.3728 74.0245C39.5548 74.1524 39.6761 74.3262 39.7368 74.5459H39.7762C39.8532 74.3295 39.9926 74.1565 40.1943 74.027C40.3976 73.8958 40.6378 73.8302 40.9149 73.8302C41.2675 73.8302 41.5536 73.9425 41.7733 74.1672C41.9947 74.3902 42.1054 74.7066 42.1054 75.1166V77.6573H41.0601V75.3232C41.0601 75.1133 41.0043 74.9559 40.8928 74.8509C40.7813 74.746 40.6419 74.6935 40.4747 74.6935C40.2845 74.6935 40.1361 74.7542 40.0295 74.8755C39.9229 74.9952 39.8696 75.1535 39.8696 75.3502V77.6573H38.8538V75.301C38.8538 75.1158 38.8005 74.9682 38.6939 74.8583C38.589 74.7485 38.4504 74.6935 38.2783 74.6935C38.1618 74.6935 38.0569 74.723 37.9634 74.7821C37.8716 74.8395 37.7986 74.9206 37.7445 75.0256C37.6904 75.1289 37.6634 75.2502 37.6634 75.3896V77.6573H36.6156ZM44.0103 77.7287C43.7693 77.7287 43.5545 77.6868 43.3659 77.6032C43.1774 77.518 43.0281 77.3925 42.9183 77.2269C42.8101 77.0597 42.756 76.8514 42.756 76.6022C42.756 76.3923 42.7945 76.216 42.8716 76.0734C42.9486 75.9307 43.0536 75.8159 43.1864 75.729C43.3192 75.6421 43.4701 75.5765 43.6389 75.5322C43.8095 75.488 43.9882 75.4568 44.1751 75.4388C44.3949 75.4158 44.572 75.3945 44.7064 75.3748C44.8409 75.3535 44.9384 75.3224 44.9991 75.2814C45.0598 75.2404 45.0901 75.1797 45.0901 75.0994V75.0846C45.0901 74.9288 45.0409 74.8083 44.9425 74.723C44.8458 74.6378 44.7081 74.5951 44.5293 74.5951C44.3408 74.5951 44.1907 74.637 44.0792 74.7206C43.9677 74.8026 43.8939 74.9059 43.8579 75.0305L42.8888 74.9518C42.938 74.7222 43.0347 74.5238 43.179 74.3566C43.3233 74.1877 43.5094 74.0581 43.7373 73.9679C43.9669 73.8761 44.2325 73.8302 44.5342 73.8302C44.7441 73.8302 44.945 73.8548 45.1368 73.904C45.3303 73.9532 45.5017 74.0294 45.6509 74.1327C45.8018 74.236 45.9206 74.3689 46.0075 74.5312C46.0944 74.6919 46.1379 74.8846 46.1379 75.1092V77.6573H45.1442V77.1334H45.1147C45.054 77.2515 44.9729 77.3556 44.8712 77.4458C44.7695 77.5344 44.6474 77.604 44.5047 77.6549C44.3621 77.7041 44.1973 77.7287 44.0103 77.7287ZM44.3104 77.0055C44.4646 77.0055 44.6006 76.9752 44.7187 76.9145C44.8368 76.8522 44.9294 76.7686 44.9966 76.6637C45.0639 76.5587 45.0975 76.4398 45.0975 76.307V75.9061C45.0647 75.9274 45.0196 75.9471 44.9622 75.9651C44.9065 75.9815 44.8433 75.9971 44.7728 76.0119C44.7023 76.025 44.6318 76.0373 44.5613 76.0488C44.4908 76.0586 44.4268 76.0676 44.3694 76.0758C44.2465 76.0939 44.1391 76.1225 44.0472 76.1619C43.9554 76.2013 43.8841 76.2545 43.8333 76.3218C43.7824 76.3874 43.757 76.4693 43.757 76.5677C43.757 76.7104 43.8087 76.8194 43.912 76.8949C44.0169 76.9686 44.1497 77.0055 44.3104 77.0055ZM46.9508 77.6573V73.8794H47.9666V74.5386H48.006C48.0748 74.3041 48.1904 74.127 48.3528 74.0073C48.5151 73.886 48.702 73.8253 48.9135 73.8253C48.966 73.8253 49.0226 73.8286 49.0833 73.8351C49.1439 73.8417 49.1972 73.8507 49.2431 73.8622V74.7919C49.1939 74.7771 49.1259 74.764 49.039 74.7526C48.9521 74.7411 48.8726 74.7353 48.8004 74.7353C48.6463 74.7353 48.5085 74.7689 48.3872 74.8362C48.2675 74.9018 48.1724 74.9936 48.1019 75.1117C48.033 75.2297 47.9986 75.3658 47.9986 75.5199V77.6573H46.9508ZM51.9837 73.8794V74.6665H49.7086V73.8794H51.9837ZM50.2251 72.9743H51.2729V76.4964C51.2729 76.5931 51.2877 76.6686 51.3172 76.7227C51.3467 76.7752 51.3877 76.8121 51.4402 76.8334C51.4943 76.8547 51.5566 76.8653 51.6271 76.8653C51.6763 76.8653 51.7255 76.8612 51.7747 76.853C51.8239 76.8432 51.8616 76.8358 51.8878 76.8309L52.0526 77.6106C52.0001 77.627 51.9263 77.6459 51.8312 77.6672C51.7361 77.6901 51.6205 77.7041 51.4844 77.709C51.2319 77.7188 51.0106 77.6852 50.8203 77.6081C50.6318 77.5311 50.485 77.4114 50.3801 77.249C50.2751 77.0867 50.2235 76.8817 50.2251 76.6341V72.9743ZM54.289 77.6573V72.6201H55.354V74.6984H57.516V72.6201H58.5785V77.6573H57.516V75.5765H55.354V77.6573H54.289ZM61.1439 77.7311C60.7618 77.7311 60.4314 77.65 60.1527 77.4876C59.8756 77.3236 59.6616 77.0957 59.5107 76.8039C59.3599 76.5103 59.2844 76.1701 59.2844 75.7831C59.2844 75.3929 59.3599 75.0518 59.5107 74.7599C59.6616 74.4664 59.8756 74.2385 60.1527 74.0762C60.4314 73.9122 60.7618 73.8302 61.1439 73.8302C61.5259 73.8302 61.8555 73.9122 62.1326 74.0762C62.4114 74.2385 62.6262 74.4664 62.7771 74.7599C62.9279 75.0518 63.0033 75.3929 63.0033 75.7831C63.0033 76.1701 62.9279 76.5103 62.7771 76.8039C62.6262 77.0957 62.4114 77.3236 62.1326 77.4876C61.8555 77.65 61.5259 77.7311 61.1439 77.7311ZM61.1488 76.9195C61.3226 76.9195 61.4677 76.8703 61.5842 76.7719C61.7006 76.6719 61.7883 76.5358 61.8473 76.3636C61.908 76.1914 61.9383 75.9955 61.9383 75.7757C61.9383 75.556 61.908 75.3601 61.8473 75.1879C61.7883 75.0157 61.7006 74.8796 61.5842 74.7796C61.4677 74.6796 61.3226 74.6296 61.1488 74.6296C60.9734 74.6296 60.8258 74.6796 60.7061 74.7796C60.588 74.8796 60.4986 75.0157 60.438 75.1879C60.3789 75.3601 60.3494 75.556 60.3494 75.7757C60.3494 75.9955 60.3789 76.1914 60.438 76.3636C60.4986 76.5358 60.588 76.6719 60.7061 76.7719C60.8258 76.8703 60.9734 76.9195 61.1488 76.9195ZM63.6846 77.6573V73.8794H64.6832V74.5459H64.7275C64.8062 74.3246 64.9374 74.15 65.121 74.0221C65.3047 73.8942 65.5244 73.8302 65.7802 73.8302C66.0393 73.8302 66.2598 73.895 66.4419 74.0245C66.6239 74.1524 66.7452 74.3262 66.8059 74.5459H66.8452C66.9223 74.3295 67.0617 74.1565 67.2634 74.027C67.4667 73.8958 67.7069 73.8302 67.984 73.8302C68.3366 73.8302 68.6227 73.9425 68.8424 74.1672C69.0638 74.3902 69.1745 74.7066 69.1745 75.1166V77.6573H68.1291V75.3232C68.1291 75.1133 68.0734 74.9559 67.9619 74.8509C67.8504 74.746 67.711 74.6935 67.5437 74.6935C67.3535 74.6935 67.2051 74.7542 67.0986 74.8755C66.992 74.9952 66.9387 75.1535 66.9387 75.3502V77.6573H65.9229V75.301C65.9229 75.1158 65.8696 74.9682 65.763 74.8583C65.6581 74.7485 65.5195 74.6935 65.3473 74.6935C65.2309 74.6935 65.126 74.723 65.0325 74.7821C64.9407 74.8395 64.8677 74.9206 64.8136 75.0256C64.7595 75.1289 64.7324 75.2502 64.7324 75.3896V77.6573H63.6846ZM71.7238 77.7311C71.3352 77.7311 71.0007 77.6524 70.7203 77.495C70.4416 77.3359 70.2268 77.1113 70.0759 76.8211C69.925 76.5292 69.8496 76.184 69.8496 75.7856C69.8496 75.397 69.925 75.0559 70.0759 74.7624C70.2268 74.4689 70.4391 74.2401 70.7129 74.0762C70.9884 73.9122 71.3114 73.8302 71.682 73.8302C71.9313 73.8302 72.1633 73.8704 72.3781 73.9507C72.5945 74.0294 72.7831 74.1483 72.9438 74.3074C73.1061 74.4664 73.2324 74.6665 73.3226 74.9075C73.4127 75.1469 73.4578 75.4273 73.4578 75.7487V76.0365H70.2677V75.3871H72.4715C72.4715 75.2363 72.4388 75.1026 72.3732 74.9862C72.3076 74.8698 72.2166 74.7788 72.1001 74.7132C71.9854 74.646 71.8517 74.6124 71.6992 74.6124C71.5402 74.6124 71.3992 74.6492 71.2762 74.723C71.1548 74.7952 71.0597 74.8927 70.9909 75.0157C70.922 75.1371 70.8867 75.2723 70.8851 75.4216V76.0389C70.8851 76.2258 70.9195 76.3874 70.9884 76.5235C71.0589 76.6596 71.1581 76.7645 71.286 76.8383C71.4139 76.9121 71.5656 76.949 71.741 76.949C71.8575 76.949 71.964 76.9326 72.0608 76.8998C72.1575 76.867 72.2403 76.8178 72.3092 76.7522C72.3781 76.6866 72.4306 76.6063 72.4666 76.5112L73.4357 76.5751C73.3865 76.808 73.2857 77.0113 73.1332 77.1851C72.9823 77.3573 72.7872 77.4917 72.5478 77.5885C72.31 77.6836 72.0354 77.7311 71.7238 77.7311ZM76.6326 77.6573H75.4913L77.2302 72.6201H78.6027L80.3392 77.6573H79.1979L77.9362 73.7712H77.8968L76.6326 77.6573ZM76.5612 75.6774H79.257V76.5087H76.5612V75.6774ZM83.3485 76.0488V73.8794H84.3963V77.6573H83.3903V76.9711H83.3509C83.2657 77.1925 83.1238 77.3704 82.9254 77.5048C82.7287 77.6393 82.4884 77.7065 82.2048 77.7065C81.9523 77.7065 81.7301 77.6491 81.5382 77.5344C81.3464 77.4196 81.1963 77.2564 81.0881 77.0449C80.9815 76.8334 80.9274 76.58 80.9258 76.2849V73.8794H81.9736V76.098C81.9752 76.321 82.0351 76.4972 82.1531 76.6268C82.2712 76.7563 82.4294 76.8211 82.6278 76.8211C82.7541 76.8211 82.8721 76.7924 82.982 76.735C83.0919 76.676 83.1804 76.589 83.2476 76.4743C83.3165 76.3595 83.3501 76.2177 83.3485 76.0488ZM87.2439 73.8794V74.6665H84.9687V73.8794H87.2439ZM85.4853 72.9743H86.5331V76.4964C86.5331 76.5931 86.5478 76.6686 86.5773 76.7227C86.6068 76.7752 86.6478 76.8121 86.7003 76.8334C86.7544 76.8547 86.8167 76.8653 86.8872 76.8653C86.9364 76.8653 86.9856 76.8612 87.0348 76.853C87.084 76.8432 87.1217 76.8358 87.1479 76.8309L87.3127 77.6106C87.2603 77.627 87.1865 77.6459 87.0914 77.6672C86.9963 77.6901 86.8807 77.7041 86.7446 77.709C86.4921 77.7188 86.2707 77.6852 86.0805 77.6081C85.8919 77.5311 85.7452 77.4114 85.6402 77.249C85.5353 77.0867 85.4836 76.8817 85.4853 76.6341V72.9743ZM89.5928 77.7311C89.2107 77.7311 88.8803 77.65 88.6016 77.4876C88.3245 77.3236 88.1105 77.0957 87.9596 76.8039C87.8088 76.5103 87.7333 76.1701 87.7333 75.7831C87.7333 75.3929 87.8088 75.0518 87.9596 74.7599C88.1105 74.4664 88.3245 74.2385 88.6016 74.0762C88.8803 73.9122 89.2107 73.8302 89.5928 73.8302C89.9748 73.8302 90.3044 73.9122 90.5815 74.0762C90.8603 74.2385 91.0751 74.4664 91.226 74.7599C91.3768 75.0518 91.4522 75.3929 91.4522 75.7831C91.4522 76.1701 91.3768 76.5103 91.226 76.8039C91.0751 77.0957 90.8603 77.3236 90.5815 77.4876C90.3044 77.65 89.9748 77.7311 89.5928 77.7311ZM89.5977 76.9195C89.7715 76.9195 89.9166 76.8703 90.0331 76.7719C90.1495 76.6719 90.2372 76.5358 90.2962 76.3636C90.3569 76.1914 90.3872 75.9955 90.3872 75.7757C90.3872 75.556 90.3569 75.3601 90.2962 75.1879C90.2372 75.0157 90.1495 74.8796 90.0331 74.7796C89.9166 74.6796 89.7715 74.6296 89.5977 74.6296C89.4223 74.6296 89.2747 74.6796 89.155 74.7796C89.0369 74.8796 88.9476 75.0157 88.8869 75.1879C88.8279 75.3601 88.7983 75.556 88.7983 75.7757C88.7983 75.9955 88.8279 76.1914 88.8869 76.3636C88.9476 76.5358 89.0369 76.6719 89.155 76.7719C89.2747 76.8703 89.4223 76.9195 89.5977 76.9195ZM92.1335 77.6573V73.8794H93.1321V74.5459H93.1764C93.2551 74.3246 93.3863 74.15 93.57 74.0221C93.7536 73.8942 93.9733 73.8302 94.2291 73.8302C94.4882 73.8302 94.7087 73.895 94.8908 74.0245C95.0728 74.1524 95.1941 74.3262 95.2548 74.5459H95.2941C95.3712 74.3295 95.5106 74.1565 95.7123 74.027C95.9156 73.8958 96.1558 73.8302 96.4329 73.8302C96.7855 73.8302 97.0716 73.9425 97.2913 74.1672C97.5127 74.3902 97.6234 74.7066 97.6234 75.1166V77.6573H96.578V75.3232C96.578 75.1133 96.5223 74.9559 96.4108 74.8509C96.2993 74.746 96.1599 74.6935 95.9927 74.6935C95.8024 74.6935 95.654 74.7542 95.5475 74.8755C95.4409 74.9952 95.3876 75.1535 95.3876 75.3502V77.6573H94.3718V75.301C94.3718 75.1158 94.3185 74.9682 94.2119 74.8583C94.107 74.7485 93.9684 74.6935 93.7962 74.6935C93.6798 74.6935 93.5749 74.723 93.4814 74.7821C93.3896 74.8395 93.3166 74.9206 93.2625 75.0256C93.2084 75.1289 93.1813 75.2502 93.1813 75.3896V77.6573H92.1335ZM99.5283 77.7287C99.2873 77.7287 99.0725 77.6868 98.8839 77.6032C98.6953 77.518 98.5461 77.3925 98.4363 77.2269C98.328 77.0597 98.2739 76.8514 98.2739 76.6022C98.2739 76.3923 98.3125 76.216 98.3895 76.0734C98.4666 75.9307 98.5715 75.8159 98.7044 75.729C98.8372 75.6421 98.988 75.5765 99.1569 75.5322C99.3274 75.488 99.5062 75.4568 99.6931 75.4388C99.9128 75.4158 100.09 75.3945 100.224 75.3748C100.359 75.3535 100.456 75.3224 100.517 75.2814C100.578 75.2404 100.608 75.1797 100.608 75.0994V75.0846C100.608 74.9288 100.559 74.8083 100.461 74.723C100.364 74.6378 100.226 74.5951 100.047 74.5951C99.8587 74.5951 99.7087 74.637 99.5972 74.7206C99.4857 74.8026 99.4119 74.9059 99.3758 75.0305L98.4067 74.9518C98.4559 74.7222 98.5527 74.5238 98.697 74.3566C98.8413 74.1877 99.0274 74.0581 99.2553 73.9679C99.4849 73.8761 99.7505 73.8302 100.052 73.8302C100.262 73.8302 100.463 73.8548 100.655 73.904C100.848 73.9532 101.02 74.0294 101.169 74.1327C101.32 74.236 101.439 74.3689 101.526 74.5312C101.612 74.6919 101.656 74.8846 101.656 75.1092V77.6573H100.662V77.1334H100.633C100.572 77.2515 100.491 77.3556 100.389 77.4458C100.288 77.5344 100.165 77.604 100.023 77.6549C99.88 77.7041 99.7152 77.7287 99.5283 77.7287ZM99.8284 77.0055C99.9825 77.0055 100.119 76.9752 100.237 76.9145C100.355 76.8522 100.447 76.7686 100.515 76.6637C100.582 76.5587 100.615 76.4398 100.615 76.307V75.9061C100.583 75.9274 100.538 75.9471 100.48 75.9651C100.424 75.9815 100.361 75.9971 100.291 76.0119C100.22 76.025 100.15 76.0373 100.079 76.0488C100.009 76.0586 99.9448 76.0676 99.8874 76.0758C99.7644 76.0939 99.657 76.1225 99.5652 76.1619C99.4734 76.2013 99.4021 76.2545 99.3512 76.3218C99.3004 76.3874 99.275 76.4693 99.275 76.5677C99.275 76.7104 99.3266 76.8194 99.4299 76.8949C99.5349 76.9686 99.6677 77.0055 99.8284 77.0055ZM104.478 73.8794V74.6665H102.203V73.8794H104.478ZM102.72 72.9743H103.767V76.4964C103.767 76.5931 103.782 76.6686 103.812 76.7227C103.841 76.7752 103.882 76.8121 103.935 76.8334C103.989 76.8547 104.051 76.8653 104.122 76.8653C104.171 76.8653 104.22 76.8612 104.269 76.853C104.318 76.8432 104.356 76.8358 104.382 76.8309L104.547 77.6106C104.495 77.627 104.421 77.6459 104.326 77.6672C104.231 77.6901 104.115 77.7041 103.979 77.709C103.726 77.7188 103.505 77.6852 103.315 77.6081C103.126 77.5311 102.98 77.4114 102.875 77.249C102.77 77.0867 102.718 76.8817 102.72 76.6341V72.9743ZM105.161 77.6573V73.8794H106.209V77.6573H105.161ZM105.687 73.3924C105.531 73.3924 105.398 73.3407 105.286 73.2374C105.176 73.1325 105.121 73.0071 105.121 72.8611C105.121 72.7168 105.176 72.593 105.286 72.4897C105.398 72.3848 105.531 72.3323 105.687 72.3323C105.843 72.3323 105.976 72.3848 106.086 72.4897C106.197 72.593 106.253 72.7168 106.253 72.8611C106.253 73.0071 106.197 73.1325 106.086 73.2374C105.976 73.3407 105.843 73.3924 105.687 73.3924ZM108.755 77.7311C108.373 77.7311 108.042 77.65 107.764 77.4876C107.487 77.3236 107.273 77.0957 107.122 76.8039C106.971 76.5103 106.895 76.1701 106.895 75.7831C106.895 75.3929 106.971 75.0518 107.122 74.7599C107.273 74.4664 107.487 74.2385 107.764 74.0762C108.042 73.9122 108.373 73.8302 108.755 73.8302C109.137 73.8302 109.467 73.9122 109.744 74.0762C110.022 74.2385 110.237 74.4664 110.388 74.7599C110.539 75.0518 110.614 75.3929 110.614 75.7831C110.614 76.1701 110.539 76.5103 110.388 76.8039C110.237 77.0957 110.022 77.3236 109.744 77.4876C109.467 77.65 109.137 77.7311 108.755 77.7311ZM108.76 76.9195C108.934 76.9195 109.079 76.8703 109.195 76.7719C109.312 76.6719 109.399 76.5358 109.458 76.3636C109.519 76.1914 109.549 75.9955 109.549 75.7757C109.549 75.556 109.519 75.3601 109.458 75.1879C109.399 75.0157 109.312 74.8796 109.195 74.7796C109.079 74.6796 108.934 74.6296 108.76 74.6296C108.584 74.6296 108.437 74.6796 108.317 74.7796C108.199 74.8796 108.11 75.0157 108.049 75.1879C107.99 75.3601 107.96 75.556 107.96 75.7757C107.96 75.9955 107.99 76.1914 108.049 76.3636C108.11 76.5358 108.199 76.6719 108.317 76.7719C108.437 76.8703 108.584 76.9195 108.76 76.9195ZM112.343 75.4732V77.6573H111.296V73.8794H112.294V74.5459H112.339C112.422 74.3262 112.562 74.1524 112.759 74.0245C112.956 73.895 113.194 73.8302 113.475 73.8302C113.737 73.8302 113.966 73.8876 114.161 74.0024C114.356 74.1172 114.508 74.2811 114.616 74.4943C114.724 74.7058 114.778 74.9583 114.778 75.2518V77.6573H113.731V75.4388C113.732 75.2076 113.673 75.0272 113.554 74.8977C113.434 74.7665 113.269 74.7009 113.059 74.7009C112.918 74.7009 112.794 74.7312 112.685 74.7919C112.579 74.8526 112.495 74.9411 112.434 75.0575C112.375 75.1723 112.345 75.3109 112.343 75.4732Z" fill="#D9D9D9"/>
<path d="M17.1571 68.2765H17.3736V68.06V59.2195L23.69 68.1847L23.7546 68.2765H23.8669H26.6807H26.8971V68.06V52.9089V52.6925H26.6807H23.434H23.2176V52.9089V61.7494L16.9012 52.7842L16.8365 52.6925H16.7242H13.9105H13.694V52.9089V68.06V68.2765H13.9105H17.1571Z" fill="#D9D9D9" stroke="#D9D9D9" stroke-width="0.432889"/>
<path d="M33.8233 68.2765H37.5029V55.7227H42.0482V52.6925H29.278V55.7227H33.8233V68.2765Z" fill="#D9D9D9" stroke="#D9D9D9" stroke-width="0.432889"/>
<path d="M44.6456 68.2765H55.0349V65.6049H47.9613V61.5976H54.3717V59.1487H47.9613V55.364H55.0349V52.6925H44.6456V68.2765Z" fill="#D9D9D9" stroke="#D9D9D9" stroke-width="0.432889"/>
<path d="M57.6322 68.2765H67.1558V65.6425H60.6624V52.6925H57.6322V68.2765Z" fill="#D9D9D9" stroke="#D9D9D9" stroke-width="0.432889"/>
<path d="M100.705 68.2765H111.094V65.6049H104.02V61.5976H110.431V59.1487H104.02V55.364H111.094V52.6925H100.705V68.2765Z" fill="#D9D9D9" stroke="#D9D9D9" stroke-width="0.432889"/>
<path d="M113.691 68.2765H117.154L120.401 62.9334L123.648 68.2765H127.327L122.566 60.4845L127.111 52.6925H123.431L120.401 58.0355L117.154 52.6925H113.691L118.453 60.4845L113.691 68.2765Z" fill="#D9D9D9" stroke="#D9D9D9" stroke-width="0.432889"/>
<path d="M88.5837 68.2765H98.1073V65.6425H91.614V52.6925H88.5837V68.2765Z" fill="#D9D9D9" stroke="#D9D9D9" stroke-width="0.432889"/>
<path d="M76.2464 68.2764H79.2766V61.8202H85.3371V59.1487H79.2766V55.364H85.9864V52.6925H76.2464V68.2764Z" fill="#D9D9D9" stroke="#D9D9D9" stroke-width="0.432889"/>
<rect x="0.0579834" y="73.6876" width="23.376" height="3.46311" fill="#D9D9D9"/>
<rect x="3.52112" y="46.4156" width="27.272" height="3.46311" transform="rotate(90 3.52112 46.4156)" fill="#D9D9D9"/>
<rect x="123.431" y="73.6876" width="16.4498" height="3.46311" fill="#D9D9D9"/>
<rect x="139.881" y="49.0129" width="24.6747" height="3.46311" transform="rotate(90 139.881 49.0129)" fill="#D9D9D9"/>
<rect x="139.881" y="21.7409" width="27.272" height="3.46311" transform="rotate(90 139.881 21.7409)" fill="#D9D9D9"/>
<path d="M60.8788 0.0964778L139.881 21.7409L138.926 24.9972L59.5218 3.72095L60.8788 0.0964778Z" fill="#D9D9D9"/>
<path d="M0.0579938 46.4156L88.3656 23.04L89.287 26.1553L0.923772 49.8787L0.0579938 46.4156Z" fill="#D9D9D9"/>
<rect x="91.8304" y="23.0396" width="29.4364" height="3.46311" transform="rotate(90 91.8304 23.0396)" fill="#D9D9D9"/>
<path d="M60.8788 41.4373V54.2076H57.4157V39.2729L60.8788 41.4373Z" fill="#D9D9D9"/>
<path d="M57.4158 21.9354V0.0964775H60.8789V25.6369L57.4158 21.9354Z" fill="#D9D9D9"/>
</svg>
