<svg width="181" height="20" viewBox="0 0 181 20" fill="none" xmlns="http://www.w3.org/2000/svg">
<g id="Social Media" opacity="0.6">
<path id="Vector" d="M10.0389 0C4.50346 0 0 4.48602 0 10C0 15.5136 4.50346 20 10.0389 20C15.5739 20 20.0777 15.5136 20.0777 10C20.0777 4.48602 15.5747 0 10.0389 0ZM12.5354 10.3521H10.9022V16.1508H8.48204C8.48204 16.1508 8.48204 12.9824 8.48204 10.3521H7.33161V8.30259H8.48204V6.97696C8.48204 6.02755 8.93493 4.54403 10.9244 4.54403L12.7178 4.55087V6.54032C12.7178 6.54032 11.628 6.54032 11.4161 6.54032C11.2043 6.54032 10.903 6.64585 10.903 7.09861V8.30299H12.7469L12.5354 10.3521Z" fill="white"/>
<g id="Instagram">
<path id="Vector_2" d="M171.96 9.99976C171.96 11.0569 171.1 11.9138 170.039 11.9138C168.977 11.9138 168.117 11.0569 168.117 9.99976C168.117 8.94263 168.977 8.08569 170.039 8.08569C171.1 8.08569 171.96 8.94263 171.96 9.99976Z" fill="white"/>
<path id="Vector_3" d="M174.532 6.61295C174.44 6.36362 174.293 6.13794 174.101 5.9527C173.915 5.76196 173.689 5.61517 173.438 5.52316C173.235 5.44458 172.93 5.35104 172.368 5.32556C171.76 5.29794 171.578 5.29199 170.039 5.29199C168.499 5.29199 168.317 5.29779 167.709 5.32541C167.147 5.35104 166.842 5.44458 166.639 5.52316C166.389 5.61517 166.162 5.76196 165.976 5.9527C165.785 6.13794 165.637 6.36346 165.545 6.61295C165.466 6.81528 165.372 7.11938 165.346 7.67923C165.319 8.2847 165.313 8.46628 165.313 9.99963C165.313 11.5328 165.319 11.7144 165.346 12.32C165.372 12.8799 165.466 13.1838 165.545 13.3862C165.637 13.6357 165.785 13.8612 165.976 14.0464C166.162 14.2372 166.388 14.3839 166.639 14.476C166.842 14.5547 167.147 14.6482 167.709 14.6737C168.317 14.7013 168.499 14.7071 170.039 14.7071C171.578 14.7071 171.76 14.7013 172.368 14.6737C172.93 14.6482 173.235 14.5547 173.438 14.476C173.941 14.2828 174.338 13.887 174.532 13.3862C174.611 13.1838 174.705 12.8799 174.731 12.32C174.759 11.7144 174.764 11.5328 174.764 9.99963C174.764 8.46628 174.759 8.2847 174.731 7.67923C174.705 7.11938 174.611 6.81528 174.532 6.61295ZM170.039 12.9481C168.404 12.9481 167.078 11.6281 167.078 9.99948C167.078 8.37091 168.404 7.05087 170.039 7.05087C171.673 7.05087 172.999 8.37091 172.999 9.99948C172.999 11.6281 171.673 12.9481 170.039 12.9481ZM173.116 7.62338C172.734 7.62338 172.424 7.31485 172.424 6.9343C172.424 6.55374 172.734 6.24521 173.116 6.24521C173.498 6.24521 173.808 6.55374 173.808 6.9343C173.807 7.31485 173.498 7.62338 173.116 7.62338Z" fill="white"/>
<path id="Vector_4" d="M170.039 0C164.495 0 160 4.478 160 10C160 15.522 164.495 20 170.039 20C175.582 20 180.078 15.522 180.078 10C180.078 4.478 175.582 0 170.039 0ZM175.769 12.3674C175.741 12.9787 175.643 13.396 175.501 13.7613C175.201 14.5326 174.589 15.1424 173.815 15.4407C173.448 15.5826 173.029 15.6796 172.416 15.7076C171.801 15.7355 171.605 15.7422 170.039 15.7422C168.473 15.7422 168.277 15.7355 167.662 15.7076C167.049 15.6796 166.63 15.5826 166.263 15.4407C165.878 15.2965 165.53 15.0705 165.242 14.7783C164.949 14.4916 164.722 14.1444 164.577 13.7613C164.435 13.3961 164.337 12.9787 164.309 12.3676C164.281 11.7551 164.274 11.5594 164.274 10C164.274 8.44055 164.281 8.24493 164.309 7.6326C164.337 7.02133 164.434 6.604 164.577 6.23871C164.722 5.85556 164.949 5.50842 165.242 5.22171C165.53 4.9295 165.878 4.70352 166.263 4.55933C166.63 4.41742 167.049 4.32037 167.662 4.29245C168.277 4.26453 168.473 4.25781 170.039 4.25781C171.604 4.25781 171.801 4.26453 172.415 4.2926C173.029 4.32037 173.448 4.41742 173.815 4.55917C174.199 4.70337 174.548 4.9295 174.836 5.22171C175.129 5.50858 175.356 5.85556 175.501 6.23871C175.643 6.604 175.741 7.02133 175.769 7.6326C175.797 8.24493 175.803 8.44055 175.803 10C175.803 11.5594 175.797 11.7551 175.769 12.3674Z" fill="white"/>
</g>
<path id="Linkedin" d="M90.0389 0C88.0534 0 86.1125 0.58649 84.4616 1.6853C82.8107 2.78412 81.524 4.3459 80.7642 6.17316C80.0043 8.00042 79.8055 10.0111 80.1929 11.9509C80.5802 13.8907 81.5364 15.6725 82.9403 17.0711C84.3443 18.4696 86.133 19.422 88.0804 19.8078C90.0277 20.1937 92.0462 19.9957 93.8806 19.2388C95.7149 18.4819 97.2828 17.2002 98.3859 15.5557C99.489 13.9112 100.078 11.9778 100.078 10C100.078 7.34783 99.0201 4.80429 97.1374 2.92893C95.2548 1.05357 92.7013 0 90.0389 0ZM87.1197 15.2632H84.9296V8.23552H87.1197V15.2632ZM86.0233 7.27631C85.7713 7.27735 85.5246 7.20393 85.3144 7.06533C85.1042 6.92674 84.94 6.72918 84.8426 6.49765C84.7451 6.26611 84.7187 6.01098 84.7668 5.76452C84.8148 5.51805 84.9351 5.2913 85.1125 5.11294C85.2899 4.93458 85.5164 4.81261 85.7634 4.76245C86.0104 4.71229 86.2667 4.73619 86.5 4.83113C86.7334 4.92606 86.9332 5.08778 87.0743 5.29583C87.2154 5.50388 87.2914 5.74893 87.2927 6C87.2934 6.33667 87.1603 6.65992 86.9224 6.89909C86.6845 7.13825 86.3613 7.27388 86.0233 7.27631ZM95.3225 15.2632H93.1337V11.8421C93.1337 11.0263 93.1179 9.98026 91.9951 9.98026C90.8724 9.98026 90.6742 10.8671 90.6742 11.7829V15.2632H88.4934V8.23552H90.595V9.19342H90.6253C90.9173 8.64079 91.6319 8.05789 92.6978 8.05789C94.9143 8.05789 95.3225 9.51316 95.3225 11.4026V15.2632Z" fill="white"/>
<path id="Vector_5" d="M130.039 0C124.503 0 120 4.48602 120 10C120 15.5136 124.503 20 130.039 20C135.574 20 140.078 15.5136 140.078 10C140.078 4.48602 135.575 0 130.039 0ZM134.517 7.71127C134.522 7.81036 134.524 7.91026 134.524 8.01015C134.524 11.0517 132.201 14.5577 127.949 14.5577C126.645 14.5577 125.43 14.1779 124.408 13.5245C124.588 13.5459 124.772 13.5568 124.959 13.5568C126.042 13.5568 127.038 13.1886 127.829 12.5715C126.818 12.553 125.964 11.8875 125.67 10.9728C125.811 10.9994 125.956 11.0143 126.104 11.0143C126.315 11.0143 126.52 10.9869 126.713 10.9341C125.656 10.723 124.86 9.79296 124.86 8.67719C124.86 8.66753 124.86 8.65746 124.861 8.64819C125.172 8.82019 125.528 8.92411 125.907 8.93579C125.287 8.52373 124.879 7.81882 124.879 7.02046C124.879 6.59832 124.993 6.20277 125.192 5.86281C126.331 7.2557 128.034 8.17167 129.954 8.26835C129.914 8.09957 129.895 7.92435 129.895 7.74349C129.895 6.47265 130.929 5.44188 132.205 5.44188C132.869 5.44188 133.469 5.72142 133.891 6.16853C134.418 6.06542 134.912 5.87449 135.359 5.60984C135.185 6.14759 134.82 6.59832 134.342 6.88351C134.81 6.82792 135.256 6.70466 135.669 6.52139C135.361 6.9822 134.969 7.38782 134.517 7.71127Z" fill="white"/>
<g id="Youtube">
<path id="Vector_6" d="M48.7886 11.8737L52.0541 10.0002L48.7886 8.12671V11.8737Z" fill="white"/>
<path id="Vector_7" d="M50.0389 0C44.4954 0 40 4.478 40 10C40 15.522 44.4954 20 50.0389 20C55.5823 20 60.0777 15.522 60.0777 10C60.0777 4.478 55.5823 0 50.0389 0ZM56.3116 10.0102C56.3116 10.0102 56.3116 12.0383 56.0534 13.0162C55.9086 13.5515 55.4849 13.9735 54.9475 14.1176C53.9658 14.375 50.0389 14.375 50.0389 14.375C50.0389 14.375 46.1222 14.375 45.1302 14.1074C44.5928 13.9633 44.1691 13.5411 44.0244 13.0058C43.766 12.0383 43.766 10 43.766 10C43.766 10 43.766 7.97211 44.0244 6.99417C44.169 6.45889 44.6031 6.02646 45.1302 5.88242C46.1119 5.625 50.0389 5.625 50.0389 5.625C50.0389 5.625 53.9658 5.625 54.9475 5.89264C55.4849 6.03668 55.9086 6.45889 56.0534 6.99417C56.322 7.97211 56.3116 10.0102 56.3116 10.0102Z" fill="white"/>
</g>
</g>
</svg>
