<svg width="12" height="10" viewBox="0 0 12 10" fill="none" xmlns="http://www.w3.org/2000/svg">
<path d="M11.1279 1.32506L10.4705 7.53407C10.4502 7.69825 10.3661 7.84907 10.2364 7.95404C10.1067 8.05901 9.94174 8.10973 9.777 8.09529C9.61225 8.08084 9.46094 8.00238 9.35564 7.87681C9.25035 7.75123 9.1995 7.58858 9.21405 7.4239L9.71114 2.729L1.07232 9.84333C0.942035 9.95062 0.775228 10.0027 0.608592 9.98808C0.441957 9.97347 0.289143 9.89337 0.183768 9.76542C0.0783932 9.63746 0.0290888 9.47213 0.0467017 9.30578C0.0643143 9.13944 0.147401 8.98571 0.277684 8.87842L8.91651 1.76409L4.21341 1.3517C4.12985 1.34584 4.04858 1.32342 3.97436 1.28576C3.90014 1.2481 3.83445 1.19595 3.78113 1.13236C3.72781 1.06877 3.68792 0.995 3.66379 0.915368C3.63966 0.835735 3.63178 0.751828 3.6406 0.668545C3.64941 0.585263 3.67476 0.50427 3.71515 0.430295C3.75554 0.356319 3.81018 0.290842 3.87586 0.237683C3.94154 0.184526 4.01696 0.14475 4.09772 0.120679C4.17848 0.0966086 4.26295 0.0887233 4.34621 0.0974842L10.5661 0.642865C10.7327 0.657498 10.8854 0.737587 10.9908 0.865517C11.0961 0.993447 11.1455 1.15874 11.1279 1.32506Z" fill="#202020"/>
</svg>
